<svg width="293" height="259" viewBox="0 0 293 259" fill="none" xmlns="http://www.w3.org/2000/svg">
<path d="M203.5 123C239.159 119.192 292 147.5 292 147.5V255.5C292 255.5 236.33 189.486 188.5 190C160.838 190.297 148.692 218.089 121.5 213C90.1495 207.133 60 157 60 157L1.5 85C1.5 85 74.9034 161.865 132.5 155C162.7 151.4 173.259 126.229 203.5 123Z" stroke="black" stroke-width="2"/>
<path d="M187.5 99.5C239.664 83.3223 291.5 6 291.5 6V1H244.5C244.5 1 206.329 55.0357 169 63.5C150.719 67.6452 117.5 69.5 117.5 69.5L25.5 63.5C25.5 63.5 125.6 118.697 187.5 99.5Z" stroke="black" stroke-width="2"/>
</svg>
