<svg width="213" height="257" viewBox="0 0 213 257" fill="none" xmlns="http://www.w3.org/2000/svg">
<path d="M6.00004 98C-2.51336 61.4891 6.00004 2 6.00004 2H156.5C156.5 2 169.436 3.05486 183.5 21C211.444 56.6552 214.919 107.798 205 152C195.226 195.554 156.5 254 156.5 254C156.5 254 25.2229 180.44 6.00004 98Z" stroke="#EDD2FF" stroke-width="4"/>
<path d="M119.501 104.313C106.807 63.052 78 2 78 2H87.3378C87.3378 2 119.925 55.2424 131.433 93.1807C146.079 141.466 143.883 222 143.883 222C143.883 222 133.289 149.129 119.501 104.313Z" stroke="#EDD2FF" stroke-width="4"/>
</svg>
