<svg width="228" height="345" viewBox="0 0 228 345" fill="none" xmlns="http://www.w3.org/2000/svg">
<path d="M94.5 166C136.26 176.751 203 145.5 203 145.5C203 145.5 173.343 49.8689 123.5 20.5C82.3403 -3.75245 2.5 2.50001 2.5 2.50001C2.5 2.50001 23.5487 147.733 94.5 166Z" stroke="#EDD2FF" stroke-width="3"/>
<path d="M105.5 115.5C139.832 136.792 173.833 137 204.5 145.5C204.5 145.5 140.583 124.075 105.5 100C69.6376 75.39 26 22 26 22C50.1667 51.6667 64.7685 90.239 105.5 115.5Z" stroke="#EDD2FF" stroke-width="3"/>
<path d="M188.609 256.862C212.79 221.158 205.829 147.793 205.829 147.793C205.829 147.793 105.796 143.528 61.3625 180.575C24.6701 211.169 3.68141 288.455 3.68141 288.455C3.68141 288.455 147.524 317.523 188.609 256.862Z" stroke="#EDD2FF" stroke-width="3"/>
<path d="M144.759 229.505C176.365 204.344 188.007 172.397 206.334 146.381C206.334 146.381 164.644 199.356 130.164 224.287C94.9177 249.772 29.9541 272.891 29.9541 272.891C66.0245 260.121 107.261 259.356 144.759 229.505Z" stroke="#EDD2FF" stroke-width="3"/>
</svg>
